<svg width="110.000000" height="26.000000" viewBox="0 0 110 26" fill="none" xmlns="http://www.w3.org/2000/svg" xmlns:xlink="http://www.w3.org/1999/xlink">
	<desc>
			Created with Pixso.
	</desc>
	<defs>
		<clipPath id="clip1_4">
			<rect width="110.000000" height="26.000000" fill="white" fill-opacity="0"/>
		</clipPath>
	</defs>
	<rect width="110.000000" height="26.000000" fill="#FFFFFF" fill-opacity="0"/>
	<g clip-path="url(#clip1_4)">
		<path d="M73.23 14.3C72.52 13.82 71.64 13.58 70.62 13.58C69.59 13.58 68.67 13.83 67.85 14.32C67.03 14.82 66.38 15.54 65.91 16.49C65.46 17.42 65.23 18.52 65.23 19.79C65.23 21.06 65.46 22.16 65.91 23.11C66.38 24.04 67.03 24.76 67.85 25.25C68.67 25.75 69.59 26 70.62 26C71.64 26 72.52 25.75 73.23 25.27C73.97 24.78 74.49 24.12 74.82 23.31L74.82 25.84L77.89 25.84L77.89 9L74.82 9L74.82 16.25C74.49 15.43 73.97 14.78 73.23 14.3ZM69.25 17.21C69.84 16.58 70.62 16.27 71.58 16.27C72.52 16.27 73.29 16.59 73.89 17.23C74.51 17.86 74.82 18.71 74.82 19.79C74.82 20.85 74.51 21.7 73.89 22.35C73.29 22.97 72.52 23.28 71.58 23.28C70.62 23.28 69.84 22.98 69.25 22.37C68.67 21.74 68.38 20.88 68.38 19.79C68.38 18.7 68.67 17.84 69.25 17.21Z" fill="#E9EDED" fill-opacity="1.000000" fill-rule="evenodd"/>
		<path d="M31.09 16.05C31.55 15.28 32.15 14.67 32.9 14.24C33.64 13.79 34.48 13.56 35.4 13.56L35.4 16.86L34.5 16.86C32.23 16.86 31.09 17.91 31.09 20.01L31.09 25.84L28 25.84L28 13.73L31.09 13.73L31.09 16.05Z" fill="#E9EDED" fill-opacity="1.000000" fill-rule="nonzero"/>
		<path d="M47.47 19.33C47.47 19.64 47.44 19.98 47.36 20.38L38.44 20.38C38.48 21.46 38.77 22.25 39.32 22.76C39.86 23.27 40.53 23.53 41.34 23.53C42.06 23.53 42.65 23.35 43.12 23C43.6 22.65 43.91 22.18 44.04 21.58L47.32 21.58C47.16 22.43 46.81 23.18 46.29 23.85C45.76 24.52 45.08 25.05 44.24 25.43C43.42 25.81 42.5 26 41.49 26C40.31 26 39.25 25.75 38.33 25.25C37.4 24.74 36.69 24.02 36.17 23.09C35.66 22.16 35.4 21.06 35.4 19.79C35.4 18.52 35.66 17.42 36.17 16.49C36.69 15.54 37.4 14.82 38.33 14.32C39.25 13.83 40.31 13.58 41.49 13.58C42.7 13.58 43.74 13.83 44.64 14.32C45.55 14.82 46.24 15.5 46.73 16.38C47.22 17.24 47.47 18.22 47.47 19.33ZM44.35 19.02C44.4 18.03 44.13 17.28 43.56 16.77C43 16.26 42.31 16.01 41.49 16.01C40.66 16.01 39.95 16.26 39.38 16.77C38.81 17.28 38.5 18.03 38.44 19.02L44.35 19.02Z" fill="#E9EDED" fill-opacity="1.000000" fill-rule="evenodd"/>
		<path d="M57.96 14.85C56.92 14 55.62 13.58 54.05 13.58C52.86 13.58 51.81 13.83 50.88 14.32C49.96 14.82 49.24 15.54 48.73 16.49C48.22 17.42 47.96 18.52 47.96 19.79C47.96 21.06 48.22 22.16 48.73 23.09C49.24 24.02 49.96 24.74 50.88 25.25C51.81 25.75 52.86 26 54.05 26C55.62 26 56.92 25.57 57.96 24.73C59.02 23.88 59.68 22.73 59.94 21.27L56.66 21.27C56.53 21.92 56.23 22.43 55.76 22.8C55.29 23.17 54.7 23.35 53.98 23.35C53.16 23.35 52.47 23.05 51.92 22.45C51.37 21.84 51.1 20.95 51.1 19.79C51.1 18.62 51.37 17.74 51.92 17.14C52.47 16.53 53.16 16.23 53.98 16.23C54.7 16.23 55.29 16.42 55.76 16.79C56.23 17.16 56.53 17.66 56.66 18.3L59.94 18.3C59.68 16.84 59.02 15.69 57.96 14.85Z" fill="#E9EDED" fill-opacity="1.000000" fill-rule="nonzero"/>
		<path d="M64.14 13.73L64.14 25.84L61.04 25.84L61.04 13.73L64.14 13.73Z" fill="#E9EDED" fill-opacity="1.000000" fill-rule="nonzero"/>
		<path d="M82.7 13.73L82.7 25.84L79.6 25.84L79.6 13.73L82.7 13.73Z" fill="#E9EDED" fill-opacity="1.000000" fill-rule="nonzero"/>
		<path d="M92.78 13.73L89.71 22.76L86.61 13.73L83.29 13.73L87.79 25.84L91.57 25.84L96.08 13.73L92.78 13.73Z" fill="#E9EDED" fill-opacity="1.000000" fill-rule="nonzero"/>
		<path d="M99.8 13.73L99.8 25.84L96.71 25.84L96.71 13.73L99.8 13.73Z" fill="#E9EDED" fill-opacity="1.000000" fill-rule="nonzero"/>
		<path d="M110 23.26L104.02 23.26L109.78 16.16L109.78 13.73L100.76 13.73L100.76 16.29L106.24 16.29L100.63 23.39L100.63 25.84L110 25.84L110 23.26Z" fill="#E9EDED" fill-opacity="1.000000" fill-rule="nonzero"/>
		<path d="M62.59 12.64C63.6 12.64 64.42 11.82 64.42 10.82C64.42 9.81 63.6 9 62.59 9C61.57 9 60.75 9.81 60.75 10.82C60.75 11.82 61.57 12.64 62.59 12.64Z" fill="#E9EDED" fill-opacity="1.000000" fill-rule="nonzero"/>
		<path d="M82.97 10.82C82.97 11.82 82.15 12.64 81.14 12.64C80.13 12.64 79.31 11.82 79.31 10.82C79.31 9.81 80.13 9 81.14 9C82.15 9 82.97 9.81 82.97 10.82Z" fill="#E9EDED" fill-opacity="1.000000" fill-rule="nonzero"/>
		<path d="M98.25 12.64C99.26 12.64 100.09 11.82 100.09 10.82C100.09 9.81 99.26 9 98.25 9C97.24 9 96.42 9.81 96.42 10.82C96.42 11.82 97.24 12.64 98.25 12.64Z" fill="#E9EDED" fill-opacity="1.000000" fill-rule="nonzero"/>
		<path d="M0 13L13 13L13 26L0 26L0 13Z" fill="#00A1FF" fill-opacity="1.000000" fill-rule="evenodd"/>
		<path d="M19 0C22.86 0 26 3.13 26 7C26 10.86 22.86 14 19 14C15.13 14 12 10.86 12 7C12 3.13 15.13 0 19 0Z" fill="#E00E00" fill-opacity="1.000000" fill-rule="evenodd"/>
	</g>
</svg>
